<?xml version="1.0" encoding="UTF-8"?>
<svg version="1.1" xmlns="http://www.w3.org/2000/svg" width="512" height="512">
<path d="M0 0 C0.68771484 -0.01861084 1.37542969 -0.03722168 2.08398438 -0.05639648 C12.80308484 0.07367743 22.00770394 6.2414011 31.0625 11.375 C32.25081523 12.04281335 33.43946127 12.71003836 34.62841797 13.37670898 C37.06640966 14.74488822 39.50250825 16.11634642 41.93701172 17.49072266 C46.30070616 19.95346306 50.6748191 22.39748564 55.04858398 24.84228516 C59.1700316 27.14684193 63.28855148 29.4566063 67.40722656 31.76611328 C72.60370745 34.6793914 77.80194696 37.58952827 83 40.5 C85.08334166 41.6666518 87.16667499 42.83331846 89.25 44 C90.796875 44.86625 90.796875 44.86625 92.375 45.75 C176.75 93 176.75 93 179.87451172 94.74975586 C181.95943936 95.91729579 184.04440034 97.08477619 186.12939453 98.25219727 C191.31360899 101.15501752 196.49725417 104.05884467 201.6796875 106.96484375 C212.48203312 113.02060086 223.29513013 119.05608874 234.125 125.0625 C243.374503 130.19299109 252.59650117 135.36904068 261.79736328 140.58618164 C269.17589524 144.76471653 276.58360346 148.88910146 284 153 C292.35408659 157.63065886 300.69114561 162.28865186 309 167 C318.40707649 172.33319092 327.85149321 177.59677112 337.30810547 182.84155273 C346.98295177 188.2084245 356.63947058 193.60740872 366.2890625 199.01953125 C370.53040736 201.39815053 374.77554259 203.76981752 379.0234375 206.13671875 C388.41855861 211.37430163 397.81317198 216.61529802 407.125 222 C407.78113281 222.37286133 408.43726563 222.74572266 409.11328125 223.12988281 C419.26232363 229.06079594 425.92472866 236.27527324 428.9921875 247.8046875 C430.94477205 258.1684055 429.38363816 267.88648355 424.02734375 277.0078125 C417.38343726 286.27472699 407.19480981 291.42792218 397.3125 296.625 C395.17874471 297.76386035 393.04595505 298.90453149 390.9140625 300.046875 C389.84188477 300.62115234 388.76970703 301.19542969 387.66503906 301.78710938 C382.8024355 304.41870661 377.99300378 307.14088477 373.1875 309.875 C364.81820861 314.63206853 356.42057929 319.33429403 348 324 C339.64583055 328.63050563 331.30881078 333.28857936 323 338 C313.54633122 343.36059989 304.05202183 348.64537251 294.546875 353.9140625 C287.34541545 357.9093928 280.16395496 361.93784121 273 366 C263.59292351 371.33319092 254.14850679 376.59677112 244.69189453 381.84155273 C233.97527059 387.78632382 223.28199034 393.77223889 212.59277344 399.76611328 C206.35331827 403.26410907 200.11148491 406.7578597 193.87011719 410.25244141 C188.68608202 413.15520977 183.50258728 416.05893358 178.3203125 418.96484375 C167.51796688 425.02060086 156.70486987 431.05608874 145.875 437.0625 C137.56300448 441.6729768 129.26868776 446.31229674 121 451 C111.59287601 456.33310811 102.1485077 461.59677062 92.69189453 466.84155273 C85.0771196 471.06565298 77.47150713 475.30563563 69.875 479.5625 C68.855271 480.13387695 67.83554199 480.70525391 66.78491211 481.29394531 C62.62375526 483.62622121 58.4631624 485.95949921 54.30322266 488.29394531 C48.03203369 491.81311183 41.75868224 495.32833911 35.48046875 498.83496094 C33.49547402 499.94387837 31.51109716 501.05390254 29.52734375 502.16503906 C26.75008154 503.71907239 23.96936924 505.26673249 21.1875 506.8125 C20.36338623 507.27487061 19.53927246 507.73724121 18.69018555 508.21362305 C17.9300415 508.63426025 17.16989746 509.05489746 16.38671875 509.48828125 C15.72889404 509.85477783 15.07106934 510.22127441 14.39331055 510.59887695 C7.01705248 514.10961435 -3.65713336 513.53865098 -11.5234375 511.8515625 C-21.01753228 508.34743288 -29.11221718 501.6877513 -33.5 492.5 C-37.3797749 483.37561191 -36.92015076 473.91577871 -36.88095093 464.20507812 C-36.88441042 462.33916195 -36.88917694 460.47324783 -36.89513266 458.60733795 C-36.9076322 453.49567028 -36.90147698 448.3841711 -36.89217401 443.2725029 C-36.8853796 437.75367859 -36.8958667 432.23488303 -36.90411377 426.71606445 C-36.91744908 415.91089916 -36.91457424 405.1057964 -36.90587585 394.30062866 C-36.89909893 385.51852912 -36.89818262 376.73644711 -36.9014473 367.9543457 C-36.901907 366.70412455 -36.90236669 365.4539034 -36.90284032 364.16579676 C-36.90379951 361.6259454 -36.90477215 359.08609406 -36.9057581 356.54624271 C-36.91406761 333.41239531 -36.90545235 310.27858059 -36.88973031 287.1447407 C-36.87549401 266.03657971 -36.87676792 244.92847302 -36.89111328 223.8203125 C-36.90718514 200.09256099 -36.91348743 176.36483576 -36.90427649 152.63707733 C-36.90332085 150.10660299 -36.90237774 147.57612865 -36.9014473 145.0456543 C-36.90098447 143.80063345 -36.90052164 142.55561261 -36.90004479 141.27286386 C-36.89745522 132.50197018 -36.9018252 123.73109577 -36.90888596 114.96020508 C-36.91730229 104.27049089 -36.91501794 93.58084279 -36.89904372 82.89113617 C-36.89116288 77.43777327 -36.88806634 71.98452052 -36.89799118 66.53115845 C-36.90694229 61.53728246 -36.90199821 56.54361857 -36.88605852 51.54976177 C-36.88271251 49.7450516 -36.88440074 47.94032345 -36.89168589 46.13562489 C-36.94020018 33.11699399 -36.28480572 21.8192696 -27.5 11.5 C-19.44020239 3.68724599 -11.11688012 0.19398419 0 0 Z " fill="#31BBFE" transform="translate(59.5,-0.5)"/>
<path d="M0 0 C2.4238365 0.93876754 4.59907799 1.99197049 6.8488043 3.2965371 C8.17210752 4.0553518 8.17210752 4.0553518 9.52214414 4.82949609 C10.47298887 5.383229 11.42383359 5.93696191 12.4034918 6.5074746 C14.48101511 7.69992974 16.55916592 8.89129214 18.6378668 10.08169335 C19.72519101 10.706083 20.81251523 11.33047265 21.93278867 11.9737832 C27.47926833 15.13799642 33.06679133 18.22750984 38.6534918 21.3199746 C40.92968011 22.58273113 43.20572145 23.84575262 45.4816168 25.1090371 C46.60632383 25.73326562 47.73103086 26.35749413 48.88981992 27.00063866 C58.36944277 32.26497101 67.84009808 37.54450193 77.2784918 42.8824746 C78.14345273 43.37151269 79.00841367 43.86055077 79.89958555 44.3644082 C82.23997261 45.69404753 84.57316644 47.03529588 86.9034918 48.3824746 C87.55978574 48.7554165 88.21607969 49.12835839 88.89226133 49.51260155 C99.04105611 55.44359447 105.70326294 62.65790753 108.7706793 74.1871621 C110.72326385 84.5508801 109.16212996 94.26895815 103.80583555 103.3902871 C97.16192905 112.65720159 86.9733016 117.81039678 77.0909918 123.0074746 C74.9572365 124.14633495 72.82444685 125.28700609 70.6925543 126.4293496 C69.62037656 127.00362695 68.54819883 127.57790429 67.44353086 128.16958398 C62.58092729 130.80118122 57.77149558 133.52335937 52.9659918 136.2574746 C44.59670041 141.01454313 36.19907109 145.71676863 27.7784918 150.3824746 C19.42432235 155.01298023 11.08730257 159.67105397 2.7784918 164.3824746 C-6.67517698 169.74307449 -16.16948637 175.02784711 -25.6746332 180.2965371 C-32.87609275 184.2918674 -40.05755325 188.32031582 -47.2215082 192.3824746 C-56.6285847 197.71566552 -66.07300142 202.97924573 -75.52961367 208.22402734 C-86.24623761 214.16879842 -96.93951787 220.15471349 -107.62873477 226.14858788 C-113.86818993 229.64658367 -120.1100233 233.1403343 -126.35139102 236.63491601 C-131.53542619 239.53768437 -136.71892093 242.44140818 -141.9011957 245.34731835 C-152.70354132 251.40307546 -163.51663834 257.43856334 -174.3465082 263.4449746 C-182.65850372 268.0554514 -190.95282044 272.69477134 -199.2215082 277.3824746 C-208.62863219 282.71558271 -218.0730005 287.97924522 -227.52961367 293.22402734 C-235.14438861 297.44812758 -242.75000107 301.68811023 -250.3465082 305.9449746 C-251.36623721 306.51635155 -252.38596621 307.08772851 -253.4365961 307.67641991 C-257.59775294 310.00869582 -261.7583458 312.34197381 -265.91828555 314.67641991 C-272.18947451 318.19558644 -278.46282597 321.71081371 -284.74103945 325.21743554 C-286.72603418 326.32635297 -288.71041105 327.43637714 -290.69416445 328.54751366 C-293.47142667 330.101547 -296.25213896 331.64920709 -299.0340082 333.1949746 C-299.85812197 333.65734521 -300.68223574 334.11971581 -301.53132266 334.59609765 C-302.2914667 335.01673486 -303.05161074 335.43737206 -303.83478945 335.87075585 C-304.49261416 336.23725243 -305.15043887 336.60374902 -305.82819766 336.98135155 C-313.03981676 340.41372887 -323.91653729 339.99779848 -331.61603945 338.2105996 C-333.7840082 337.3824746 -333.7840082 337.3824746 -336.7215082 335.8824746 C-335.11279175 331.88154108 -332.30880173 329.18669742 -329.30441207 326.20252293 C-328.7430623 325.6370679 -328.18171253 325.07161286 -327.60335216 324.48902282 C-325.71050844 322.58481948 -323.81058898 320.68783652 -321.9106409 318.7907235 C-320.54262559 317.4175421 -319.17504099 316.04393151 -317.80785179 314.6699276 C-314.04124464 310.88716072 -310.26835689 307.11071247 -306.49439961 303.33528048 C-302.42873498 299.26591833 -298.36877778 295.19086857 -294.30801028 291.11662072 C-285.42523377 282.20666569 -276.53489176 273.30428517 -267.64291948 264.4035086 C-262.09487784 258.8499459 -256.54831433 253.29490855 -251.00202006 247.73960084 C-235.65625841 232.36945567 -220.30864287 217.00116814 -204.95403212 201.63986272 C-203.96118462 200.64657194 -202.96833726 199.65328102 -201.97549005 198.65998994 C-200.98022836 197.66428696 -199.9849665 196.66858414 -198.98970449 195.67288148 C-196.99299378 193.67528566 -194.99628764 191.67768529 -192.99958438 189.68008202 C-192.50451617 189.18479504 -192.00944796 188.68950805 -191.49937769 188.17921236 C-175.43441832 172.10698615 -159.38180248 156.02250648 -143.33652048 139.9306374 C-126.37893053 122.92390144 -109.41052945 105.92803033 -92.42955112 88.94464588 C-83.17034574 79.68360354 -73.91607677 70.41774279 -64.67407435 61.13952988 C-56.80783535 53.24257996 -48.93151109 45.35586979 -41.04161801 37.48254975 C-37.01316431 33.46194066 -32.98981056 29.43654318 -28.97925586 25.3980729 C-25.31256623 21.70609409 -21.63248745 18.02805313 -17.94093774 14.3609362 C-16.60322377 13.02716924 -15.27063472 11.68823974 -13.94356843 10.34387817 C-12.14784111 8.52622589 -10.33488006 6.72778887 -8.51612777 4.93322057 C-7.73772388 4.1320311 -7.73772388 4.1320311 -6.94359466 3.31465599 C-3.38047344 -0.1459821 -3.38047344 -0.1459821 0 0 Z " fill="#D83F22" transform="translate(379.721508204937,173.11752539873123)"/>
<path d="M0 0 C89.43 0 178.86 0 271 0 C267.5028282 4.08003376 264.1997927 7.9251816 260.43545723 11.6875906 C259.57007902 12.55495985 258.70470082 13.42232911 257.81309903 14.31598228 C256.86788621 15.25834306 255.92262669 16.20065701 254.97732544 17.14292908 C253.96135774 18.15933341 252.94561006 19.17595771 251.93006217 20.19278151 C249.1524721 22.9725983 246.37178938 25.74930303 243.59057379 28.52549183 C240.58679055 31.5249445 237.58591029 34.52729911 234.58467102 37.52929688 C229.38895365 42.72553783 224.19141289 47.91994908 218.99261856 53.1131115 C211.47609664 60.621496 203.96234739 68.13265014 196.44926547 75.6444766 C184.25882316 87.83273191 172.06615076 100.01875378 159.87207031 112.20336914 C148.02877435 124.03748187 136.18653228 135.87264756 124.34570312 147.70922852 C123.61546555 148.43920337 122.88522797 149.16917822 122.13286199 149.92127352 C118.46937112 153.58345932 114.80590094 157.2456658 111.14244103 160.90788257 C80.76483265 191.27512933 50.38360254 221.6387507 20 252 C11.15335261 248.56159762 5.94666529 242.62645726 2 234 C0.21866838 228.01214315 -0.28288238 222.68323419 -0.24050903 216.45812988 C-0.24222107 215.53063934 -0.24393311 214.6031488 -0.24569702 213.64755249 C-0.24899306 210.54685651 -0.23798375 207.44637919 -0.22705078 204.34570312 C-0.22643781 202.0819474 -0.2267056 199.81819129 -0.2277813 197.55443573 C-0.22823218 191.50087777 -0.21665368 185.44739913 -0.20256042 179.39385986 C-0.19115731 173.71016189 -0.19063346 168.02648305 -0.18920898 162.34277344 C-0.17872089 145.72850515 -0.15079853 129.11425157 -0.125 112.5 C-0.08375 75.375 -0.0425 38.25 0 0 Z " fill="#2C9ED8" transform="translate(23,256)"/>
<path d="M0 0 C0.69472412 -0.02191406 1.38944824 -0.04382812 2.10522461 -0.06640625 C12.88883469 -0.02639749 22.08270922 6.15055669 31.1875 11.3125 C32.37581523 11.98031335 33.56446127 12.64753836 34.75341797 13.31420898 C37.19140966 14.68238822 39.62750825 16.05384642 42.06201172 17.42822266 C46.42570616 19.89096306 50.7998191 22.33498564 55.17358398 24.77978516 C59.2950316 27.08434193 63.41355148 29.3941063 67.53222656 31.70361328 C72.72870745 34.6168914 77.92694696 37.52702827 83.125 40.4375 C85.20834166 41.6041518 87.29167499 42.77081846 89.375 43.9375 C90.921875 44.80375 90.921875 44.80375 92.5 45.6875 C176.875 92.9375 176.875 92.9375 179.99951172 94.68725586 C182.08443936 95.85479579 184.16940034 97.02227619 186.25439453 98.18969727 C191.43860899 101.09251752 196.62225417 103.99634467 201.8046875 106.90234375 C212.60703312 112.95810086 223.42013013 118.99358874 234.25 125 C243.49806983 130.12969615 252.71894548 135.30441593 261.91796875 140.52148438 C269.33820267 144.72423097 276.79026998 148.86783547 284.25 153 C295.76583969 159.38009679 307.21558104 165.86921492 318.625 172.4375 C314.26804101 177.64813922 309.6891384 182.51166581 304.87548828 187.30053711 C304.12358719 188.05258423 303.3716861 188.80463135 302.59700012 189.57946777 C300.132136 192.04363996 297.66375789 194.50425951 295.1953125 196.96484375 C293.47731025 198.68097927 291.75952988 200.39733694 290.04196167 202.11390686 C285.53643139 206.61563208 281.02790529 211.11434517 276.51873779 215.61242676 C271.91171199 220.20919509 267.30754087 224.80882077 262.703125 229.40820312 C253.67986693 238.42075937 244.65346994 247.43016504 235.625 256.4375 C229.57473034 251.42508901 224.02951034 245.9854631 218.48207092 240.42828369 C217.46566211 239.41374557 216.44903795 238.39942314 215.43221849 237.38529658 C212.65240142 234.61157114 209.87568975 231.83475539 207.09950817 229.05739188 C204.10001724 226.0576963 201.09766374 223.06086806 198.09570312 220.06364441 C192.22229775 214.19852957 186.3516584 208.33065372 180.48211778 202.46167144 C175.71421304 197.69424223 170.94551862 192.92760435 166.17626762 188.16152191 C152.65764189 174.65169515 139.14110708 161.13978144 125.62725539 147.6251792 C124.89939929 146.89728315 124.1715432 146.1693871 123.42163086 145.41943359 C122.69288875 144.6906506 121.96414664 143.96186762 121.21332144 143.21100029 C109.38086701 131.37813868 97.54342206 119.55028345 85.70372648 107.72466758 C73.54984216 95.58512297 61.3996656 83.44187834 49.25338167 71.29472899 C42.43262843 64.47364316 35.61032962 57.65411955 28.78404427 50.83856964 C22.97784068 45.04143901 17.17506893 39.24090078 11.37680877 33.43582472 C8.41631912 30.47205475 5.45420625 27.50995458 2.48776817 24.55213737 C-0.22341561 21.84875228 -2.93000988 19.14086172 -5.63289995 16.42918512 C-6.61545509 15.44508033 -7.59973065 14.46268987 -8.58581936 13.48212579 C-9.91788793 12.15703187 -11.24330448 10.82526063 -12.56829739 9.49309158 C-13.30875472 8.75285161 -14.04921206 8.01261164 -14.8121075 7.24994016 C-16.375 5.4375 -16.375 5.4375 -16.375 3.4375 C-10.97969935 0.68245286 -6.01453538 0.08464657 0 0 Z " fill="#29CB5E" transform="translate(59.375,-0.4375)"/>
<path d="M0 0 C2.57136814 0.79611629 4.65636665 1.81150552 6.98441029 3.16148663 C8.30771351 3.92030132 8.30771351 3.92030132 9.65775013 4.69444561 C10.60859486 5.24817852 11.55943958 5.80191143 12.53909779 6.37242413 C14.6166211 7.56487926 16.69477191 8.75624166 18.77347279 9.94664288 C20.40445911 10.88322735 20.40445911 10.88322735 22.06839466 11.83873272 C27.61487432 15.00294594 33.20239732 18.09245936 38.78909779 21.18492413 C41.0652861 22.44768066 43.34132744 23.71070215 45.61722279 24.97398663 C46.74192982 25.59821514 47.86663685 26.22244366 49.02542591 26.86558819 C58.50504876 32.12992053 67.97570407 37.40945145 77.41409779 42.74742413 C78.71153919 43.48098125 78.71153919 43.48098125 80.03519154 44.22935772 C82.3755786 45.55899705 84.70877243 46.90024541 87.03909779 48.24742413 C87.69539173 48.62036602 88.35168568 48.99330791 89.02786732 49.37755108 C99.1766621 55.30854399 105.83886893 62.52285706 108.90628529 74.05211163 C110.85886984 84.41582963 109.29773595 94.13390768 103.94144154 103.25523663 C97.29753504 112.52215112 87.10890759 117.67534631 77.22659779 122.87242413 C75.09284249 124.01128448 72.96005284 125.15195561 70.82816029 126.29429913 C69.21989368 127.15571514 69.21989368 127.15571514 67.57913685 128.0345335 C62.71653434 130.66613017 57.90707917 133.38827092 53.10159779 136.12242413 C43.39672106 141.63951075 33.65165234 147.08076307 23.87942982 152.47740459 C19.13245289 155.10322981 14.39421949 157.73090028 9.73441029 160.50914288 C9.08093616 160.89674786 8.42746204 161.28435284 7.75418568 161.68370342 C6.13552018 162.65232388 4.52621697 163.63654647 2.91800404 164.62242413 C0.00474193 165.93134688 -0.66932099 165.83459088 -3.58590221 164.74742413 C-5.34310055 163.35936928 -5.34310055 163.35936928 -7.14199352 161.55209637 C-7.82903866 160.86917522 -8.51608379 160.18625408 -9.22394848 159.48263836 C-10.33849155 158.35191654 -10.33849155 158.35191654 -11.47555065 157.19835186 C-12.66148563 156.013074 -12.66148563 156.013074 -13.8713789 154.80385113 C-16.48651718 152.18662052 -19.09086537 149.55891904 -21.69527721 146.93101788 C-23.50494609 145.11575466 -25.31527784 143.30115204 -27.12624645 141.48718548 C-31.40638254 137.19675988 -35.67976894 132.8997219 -39.94996858 128.59941489 C-44.81223917 123.70360936 -49.68303358 118.81632214 -54.554564 113.92973316 C-64.57452586 103.87841569 -74.5837316 93.81644375 -84.58590221 83.74742413 C-83.22310855 80.70527438 -81.68226351 78.58684106 -79.34192944 76.22256756 C-78.67327358 75.54249142 -78.00461773 74.86241528 -77.31569958 74.16173077 C-76.58268627 73.42648174 -75.84967297 72.69123272 -75.09444714 71.93370342 C-74.3219009 71.15122738 -73.54935467 70.36875134 -72.75339794 69.5625639 C-70.19666766 66.97662688 -67.63221114 64.3985393 -65.06637096 61.82164288 C-63.287581 60.03135117 -61.50879793 58.24105262 -59.73002148 56.45074749 C-56.47707801 53.17948136 -53.22129558 49.91109123 -49.96221274 46.64594525 C-45.16423436 41.83899096 -40.37963962 37.01922023 -35.60618418 32.1879155 C-31.4694151 28.0027614 -27.31627407 23.83412119 -23.15697193 19.67135334 C-21.38930375 17.89761582 -19.62665809 16.11885863 -17.8690958 14.33510685 C-15.41510224 11.8471604 -12.94305675 9.37866426 -10.46554089 6.91417217 C-9.73860027 6.16880199 -9.01165966 5.42343182 -8.26269054 4.65547466 C-7.58557522 3.98949764 -6.90845989 3.32352062 -6.21082592 2.63736248 C-5.62808501 2.05168845 -5.0453441 1.46601442 -4.44494438 0.8625927 C-2.58590221 -0.25257587 -2.58590221 -0.25257587 0 0 Z " fill="#FEAA00" transform="translate(379.5859022140503,173.2525758743286)"/>
<path d="M0 0 C2.31935052 1.05437892 4.53980555 2.12388291 6.7454071 3.40286255 C8.06871033 4.16167725 8.06871033 4.16167725 9.41874695 4.93582153 C10.36959167 5.48955444 11.3204364 6.04328735 12.3000946 6.61380005 C14.37761792 7.80625518 16.45576873 8.99761759 18.5344696 10.1880188 C20.16545593 11.12460327 20.16545593 11.12460327 21.82939148 12.08010864 C27.37587114 15.24432186 32.96339414 18.33383529 38.5500946 21.42630005 C40.82628292 22.68905658 43.10232426 23.95207807 45.3782196 25.21536255 C46.50292664 25.83959106 47.62763367 26.46381958 48.78642273 27.10696411 C58.26604558 32.37129645 67.73670088 37.65082738 77.1750946 42.98880005 C78.47253601 43.72235718 78.47253601 43.72235718 79.79618835 44.47073364 C82.13657542 45.80037298 84.46976925 47.14162133 86.8000946 48.48880005 C87.45638855 48.86174194 88.1126825 49.23468384 88.78886414 49.618927 C99.2566841 55.73635941 105.23358558 62.83233318 108.69462585 74.49661255 C109.1750946 76.98880005 109.1750946 76.98880005 109.1750946 82.98880005 C45.1550946 82.98880005 -18.8649054 82.98880005 -84.8249054 82.98880005 C-78.07322681 75.1118417 -78.07322681 75.1118417 -75.25177002 72.2550354 C-74.61127213 71.60449188 -73.97077423 70.95394836 -73.31086731 70.28369141 C-72.62963806 69.59663116 -71.94840881 68.90957092 -71.24653625 68.20169067 C-70.5124202 67.45779083 -69.77830414 66.71389099 -69.02194214 65.94744873 C-66.61436055 63.51017537 -64.20272549 61.07698211 -61.78974915 58.64505005 C-60.9630176 57.81174667 -60.13628605 56.9784433 -59.28450203 56.11988831 C-54.91855512 51.72148471 -50.54863568 47.32706523 -46.17622375 42.93508911 C-42.55699297 39.29795793 -38.94649326 35.65247789 -35.34321594 31.99954224 C-30.98582413 27.5821867 -26.61409767 23.17952347 -22.231493 18.78718567 C-20.56415992 17.11126922 -18.90198431 15.43020562 -17.24505424 13.7440033 C-14.93508709 11.39539599 -12.60718197 9.06614607 -10.27388 6.74075317 C-9.24899979 5.68587204 -9.24899979 5.68587204 -8.20341492 4.60968018 C-3.50845812 -0.01391004 -3.50845812 -0.01391004 0 0 Z " fill="#FED500" transform="translate(379.8249053955078,173.01119995117188)"/>
</svg>
